<?xml version="1.0" encoding="UTF-8" ?>
<!DOCTYPE svg PUBLIC "-//W3C//DTD SVG 1.1//EN" "http://www.w3.org/Graphics/SVG/1.1/DTD/svg11.dtd">
<svg width="404pt" height="182pt" viewBox="0 0 404 182" version="1.1" xmlns="http://www.w3.org/2000/svg">
<g id="#015bbbff">
<path fill="#015bbb" opacity="1.00" d=" M 105.78 31.75 C 115.11 17.02 131.62 7.48 148.89 5.82 C 171.38 3.82 194.44 16.28 204.61 36.50 C 204.68 36.84 204.82 37.52 204.89 37.86 C 200.02 48.59 197.78 60.70 199.89 72.38 C 200.90 77.32 202.29 82.18 204.21 86.84 C 204.97 88.46 204.61 90.22 203.60 91.64 C 199.35 98.75 193.79 105.17 186.89 109.84 C 173.26 119.88 155.14 122.53 138.87 118.49 C 125.60 114.74 113.52 106.37 106.01 94.72 C 93.33 76.32 93.25 50.25 105.78 31.75 M 131.81 33.67 C 124.99 38.44 125.10 47.70 120.95 54.25 C 120.50 52.58 121.32 50.00 119.07 49.40 C 116.32 49.57 112.40 50.62 113.03 54.16 C 114.39 54.94 115.83 55.58 117.39 55.84 C 117.76 56.14 118.51 56.72 118.88 57.01 C 118.92 62.01 118.05 67.03 118.72 72.02 C 120.22 79.13 119.07 86.44 119.54 93.64 C 122.44 93.89 125.36 93.93 128.23 93.45 C 128.22 91.10 128.23 88.76 128.23 86.41 C 145.31 86.42 162.38 86.41 179.46 86.42 C 179.45 88.85 179.50 91.28 179.62 93.71 C 182.55 93.87 185.49 93.86 188.41 93.55 C 188.61 87.44 188.16 81.30 188.62 75.20 C 189.95 69.54 189.21 63.72 188.76 58.01 C 189.52 55.14 193.34 55.89 194.76 53.60 C 195.46 50.31 191.04 50.18 188.96 49.21 C 188.42 49.61 187.34 50.41 186.80 50.81 C 186.74 51.69 186.63 53.45 186.57 54.32 C 184.89 51.78 184.23 48.80 183.41 45.92 C 182.17 41.24 179.45 37.11 176.27 33.51 C 161.51 32.25 146.53 31.75 131.81 33.67 Z" />
<path fill="#015bbb" opacity="1.00" d=" M 137.98 34.56 C 148.52 34.16 159.08 34.40 169.63 34.43 C 171.74 37.30 174.41 39.67 176.84 42.23 C 178.55 45.49 179.10 49.22 180.52 52.61 C 177.11 53.60 173.55 53.14 170.07 53.23 C 155.80 53.34 141.54 53.25 127.28 53.19 C 128.27 49.45 129.22 45.59 131.13 42.19 C 133.36 39.60 135.98 37.36 137.98 34.56 Z" />
<path fill="#015bbb" opacity="1.00" d=" M 122.47 64.34 C 122.38 61.58 121.16 56.66 125.12 56.22 C 129.45 57.24 133.22 59.84 137.16 61.82 C 139.09 62.57 138.50 64.69 138.51 66.29 C 133.12 67.05 127.45 66.69 122.47 64.34 Z" />
<path fill="#015bbb" opacity="1.00" d=" M 168.58 63.96 C 172.12 60.58 176.60 58.28 181.13 56.54 C 185.80 54.83 187.21 62.83 183.76 64.79 C 179.44 67.02 174.42 66.48 169.73 66.43 C 169.44 65.81 168.87 64.58 168.58 63.96 Z" />
</g>
<g id="#fed501ff">
<path fill="#fed501" opacity="1.00" d=" M 247.32 6.54 C 251.87 5.71 256.50 5.38 261.12 5.81 C 280.10 7.43 298.04 18.83 306.94 35.75 C 309.93 40.78 311.69 46.41 312.89 52.11 C 313.90 59.01 313.32 66.08 313.23 73.04 C 311.22 82.45 307.39 91.55 301.21 98.99 C 293.20 109.10 281.56 116.14 269.05 119.07 C 260.18 120.72 250.92 120.76 242.13 118.61 C 225.54 114.32 211.45 102.33 204.21 86.84 C 202.29 82.18 200.90 77.32 199.89 72.38 C 197.78 60.70 200.02 48.59 204.89 37.86 C 213.08 21.53 229.12 9.18 247.32 6.54 M 240.17 51.88 C 239.01 57.71 240.39 63.72 243.11 68.91 C 238.28 74.12 233.03 78.92 228.11 84.03 C 226.01 85.98 225.40 89.42 227.16 91.78 C 229.02 94.28 233.12 94.54 235.24 92.24 C 240.51 87.00 245.88 81.87 250.98 76.47 C 260.32 82.89 273.86 80.76 281.34 72.44 C 287.78 65.60 289.38 54.88 285.53 46.36 C 281.60 37.47 271.86 31.54 262.12 32.42 C 251.47 32.80 241.77 41.33 240.17 51.88 Z" />
<path fill="#fed501" opacity="1.00" d=" M 259.46 39.70 C 265.41 38.30 272.20 39.93 276.28 44.64 C 283.00 51.54 282.02 64.42 273.92 69.85 C 265.28 77.23 250.39 72.31 247.42 61.50 C 244.24 52.51 250.07 41.65 259.46 39.70 M 263.46 43.60 C 263.40 44.94 262.95 46.35 263.45 47.66 C 265.31 48.77 267.57 49.31 269.08 50.95 C 270.62 52.52 271.16 54.76 272.51 56.46 C 274.03 57.22 276.05 56.54 276.71 54.96 C 276.99 52.37 275.25 50.15 273.88 48.13 C 271.29 45.26 267.57 42.20 263.46 43.60 Z" />
</g>
<g id="#ffffffff">
<path fill="#ffffff" opacity="1.00" d=" M 131.81 33.67 C 146.53 31.75 161.51 32.25 176.27 33.51 C 179.45 37.11 182.17 41.24 183.41 45.92 C 184.23 48.80 184.89 51.78 186.57 54.32 C 186.63 53.45 186.74 51.69 186.80 50.81 C 187.34 50.41 188.42 49.61 188.96 49.21 C 191.04 50.18 195.46 50.31 194.76 53.60 C 193.34 55.89 189.52 55.14 188.76 58.01 C 189.21 63.72 189.95 69.54 188.62 75.20 C 188.16 81.30 188.61 87.44 188.41 93.55 C 185.49 93.86 182.55 93.87 179.62 93.71 C 179.50 91.28 179.45 88.85 179.46 86.42 C 162.38 86.41 145.31 86.42 128.23 86.41 C 128.23 88.76 128.22 91.10 128.23 93.45 C 125.36 93.93 122.44 93.89 119.54 93.64 C 119.07 86.44 120.22 79.13 118.72 72.02 C 118.05 67.03 118.92 62.01 118.88 57.01 C 118.51 56.72 117.76 56.14 117.39 55.84 C 115.83 55.58 114.39 54.94 113.03 54.16 C 112.40 50.62 116.32 49.57 119.07 49.40 C 121.32 50.00 120.50 52.58 120.95 54.25 C 125.10 47.70 124.99 38.44 131.81 33.67 M 137.98 34.56 C 135.98 37.36 133.36 39.60 131.13 42.19 C 129.22 45.59 128.27 49.45 127.28 53.19 C 141.54 53.25 155.80 53.34 170.07 53.23 C 173.55 53.14 177.11 53.60 180.52 52.61 C 179.10 49.22 178.55 45.49 176.84 42.23 C 174.41 39.67 171.74 37.30 169.63 34.43 C 159.08 34.40 148.52 34.16 137.98 34.56 M 122.47 64.34 C 127.45 66.69 133.12 67.05 138.51 66.29 C 138.50 64.69 139.09 62.57 137.16 61.82 C 133.22 59.84 129.45 57.24 125.12 56.22 C 121.16 56.66 122.38 61.58 122.47 64.34 M 168.58 63.96 C 168.87 64.58 169.44 65.81 169.73 66.43 C 174.42 66.48 179.44 67.02 183.76 64.79 C 187.21 62.83 185.80 54.83 181.13 56.54 C 176.60 58.28 172.12 60.58 168.58 63.96 Z" />
<path fill="#ffffff" opacity="1.00" d=" M 240.17 51.88 C 241.77 41.33 251.47 32.80 262.12 32.42 C 271.86 31.54 281.60 37.47 285.53 46.36 C 289.38 54.88 287.78 65.60 281.34 72.44 C 273.86 80.76 260.32 82.89 250.98 76.47 C 245.88 81.87 240.51 87.00 235.24 92.24 C 233.12 94.54 229.02 94.28 227.16 91.78 C 225.40 89.42 226.01 85.98 228.11 84.03 C 233.03 78.92 238.28 74.12 243.11 68.91 C 240.39 63.72 239.01 57.71 240.17 51.88 M 259.46 39.70 C 250.07 41.65 244.24 52.51 247.42 61.50 C 250.39 72.31 265.28 77.23 273.92 69.85 C 282.02 64.42 283.00 51.54 276.28 44.64 C 272.20 39.93 265.41 38.30 259.46 39.70 Z" />
<path fill="#ffffff" opacity="1.00" d=" M 263.46 43.60 C 267.57 42.20 271.29 45.26 273.88 48.13 C 275.25 50.15 276.99 52.37 276.71 54.96 C 276.05 56.54 274.03 57.22 272.51 56.46 C 271.16 54.76 270.62 52.52 269.08 50.95 C 267.57 49.31 265.31 48.77 263.45 47.66 C 262.95 46.35 263.40 44.94 263.46 43.60 Z" />
</g>
<g id="#343434ff">
<path fill="#343434" opacity="1.00" d=" M 14.30 132.13 C 21.47 132.12 28.63 132.13 35.80 132.12 C 38.50 134.81 41.19 137.50 43.88 140.20 C 43.88 143.60 43.88 147.01 43.86 150.41 C 40.12 147.00 36.41 143.55 32.68 140.13 C 27.60 140.13 22.51 140.10 17.42 140.15 C 13.74 143.63 9.99 147.05 6.25 150.48 C 6.25 147.06 6.26 143.64 6.24 140.22 C 8.91 137.51 11.61 134.83 14.30 132.13 Z" />
<path fill="#343434" opacity="1.00" d=" M 49.00 132.12 C 58.64 132.12 68.28 132.14 77.91 132.12 C 80.62 134.79 83.30 137.49 85.99 140.18 C 86.00 144.65 86.05 149.13 85.93 153.60 C 81.57 157.43 77.40 161.46 73.12 165.36 C 73.13 161.70 73.13 158.04 73.13 154.38 C 69.92 154.37 66.71 154.37 63.51 154.37 C 63.50 151.71 63.50 149.04 63.50 146.38 C 66.71 146.38 69.92 146.38 73.12 146.37 C 73.12 144.29 73.12 142.21 73.12 140.13 C 68.82 140.12 64.52 140.13 60.22 140.12 C 56.46 143.53 52.76 147.00 49.01 150.41 C 48.99 144.32 49.00 138.22 49.00 132.12 Z" />
<path fill="#343434" opacity="1.00" d=" M 90.00 132.12 C 102.42 132.13 114.83 132.12 127.25 132.13 C 127.25 134.79 127.25 137.46 127.25 140.12 C 122.62 140.13 118.00 140.10 113.38 140.15 C 109.70 143.59 105.98 146.99 102.28 150.41 C 102.25 146.99 102.25 143.57 102.26 140.15 C 98.18 140.11 94.09 140.12 90.00 140.12 C 90.00 137.46 90.00 134.79 90.00 132.12 Z" />
<path fill="#343434" opacity="1.00" d=" M 138.39 132.15 C 145.50 132.11 152.60 132.12 159.71 132.14 C 162.39 134.83 165.09 137.51 167.76 140.22 C 167.74 144.67 167.77 149.12 167.71 153.57 C 163.45 157.44 159.27 161.39 155.02 165.28 C 154.97 156.89 155.02 148.51 154.99 140.12 C 150.48 140.13 145.96 140.07 141.45 140.19 C 137.84 143.71 134.08 147.06 130.38 150.47 C 130.38 147.07 130.38 143.66 130.36 140.25 C 133.01 137.53 135.72 134.86 138.39 132.15 Z" />
<path fill="#343434" opacity="1.00" d=" M 180.46 132.17 C 187.61 132.07 194.77 132.15 201.92 132.12 C 204.58 134.76 207.23 137.41 209.87 140.07 C 209.87 144.58 209.91 149.09 209.82 153.60 C 205.54 157.47 201.37 161.46 197.12 165.36 C 197.13 156.95 197.13 148.54 197.12 140.13 C 192.71 140.12 188.29 140.13 183.88 140.11 C 180.05 143.53 176.31 147.04 172.50 150.48 C 172.50 147.08 172.51 143.68 172.47 140.28 C 175.10 137.55 177.82 134.90 180.46 132.17 Z" />
<path fill="#343434" opacity="1.00" d=" M 223.08 132.12 C 230.25 132.16 237.41 132.05 244.58 132.19 C 247.13 134.86 249.77 137.45 252.38 140.07 C 252.38 144.51 252.35 148.95 252.41 153.39 C 248.22 157.42 243.90 161.33 239.64 165.28 C 239.61 156.90 239.63 148.52 239.63 140.13 C 235.19 140.12 230.76 140.12 226.32 140.13 C 222.54 143.57 218.79 147.05 215.00 150.49 C 215.00 147.05 215.00 143.62 215.00 140.19 C 217.69 137.49 220.38 134.80 223.08 132.12 Z" />
<path fill="#343434" opacity="1.00" d=" M 257.25 132.13 C 261.50 132.12 265.75 132.13 269.99 132.12 C 270.00 143.17 270.00 154.21 270.00 165.25 C 265.76 161.35 261.57 157.39 257.29 153.53 C 257.20 146.40 257.28 139.26 257.25 132.13 Z" />
<path fill="#343434" opacity="1.00" d=" M 278.88 132.13 C 283.17 132.12 287.46 132.12 291.75 132.13 C 291.74 143.17 291.75 154.20 291.75 165.24 C 287.46 165.26 283.17 165.25 278.88 165.24 C 278.87 154.21 278.87 143.17 278.88 132.13 Z" />
<path fill="#343434" opacity="1.00" d=" M 299.25 132.13 C 303.50 132.12 307.75 132.13 311.99 132.12 C 311.80 139.28 312.40 146.52 311.72 153.64 C 307.72 157.67 303.39 161.36 299.27 165.28 C 299.23 154.23 299.27 143.18 299.25 132.13 Z" />
<path fill="#343434" opacity="1.00" d=" M 317.00 132.12 C 321.25 132.13 325.50 132.12 329.75 132.13 C 329.75 138.59 329.73 145.05 329.76 151.50 C 325.50 147.59 321.28 143.62 317.01 139.72 C 317.00 137.19 317.00 134.66 317.00 132.12 Z" />
<path fill="#343434" opacity="1.00" d=" M 341.88 132.13 C 346.17 132.12 350.46 132.12 354.75 132.13 C 354.72 139.26 354.79 146.40 354.71 153.53 C 350.38 157.42 346.17 161.42 341.89 165.35 C 341.86 154.28 341.88 143.20 341.88 132.13 Z" />
<path fill="#343434" opacity="1.00" d=" M 359.75 132.13 C 364.00 132.12 368.25 132.12 372.51 132.14 C 372.50 134.28 372.50 136.42 372.50 138.56 C 368.25 142.51 364.02 146.48 359.76 150.41 C 359.74 144.32 359.75 138.22 359.75 132.13 Z" />
<path fill="#343434" opacity="1.00" d=" M 386.39 132.15 C 389.94 132.12 393.50 132.12 397.05 132.13 C 392.32 136.89 387.55 141.60 382.83 146.38 C 384.79 146.37 386.77 146.37 388.74 146.35 C 391.12 148.90 393.72 151.25 395.90 153.98 C 392.54 158.15 388.04 161.50 384.25 165.36 C 384.25 161.75 384.25 158.13 384.25 154.51 C 381.04 154.50 377.83 154.50 374.63 154.50 C 374.62 150.98 374.62 147.47 374.62 143.96 C 378.53 140.01 382.49 136.11 386.39 132.15 Z" />
<path fill="#343434" opacity="1.00" d=" M 31.03 142.74 C 34.73 146.14 38.38 149.60 42.09 152.99 C 42.83 153.82 44.11 154.55 43.86 155.87 C 43.94 162.58 43.84 169.29 43.87 176.00 C 39.58 176.00 35.29 176.00 31.00 176.00 C 31.02 164.91 30.96 153.82 31.03 142.74 Z" />
<path fill="#343434" opacity="1.00" d=" M 49.03 154.32 C 53.30 150.52 57.49 146.65 61.73 142.83 C 61.76 151.22 61.74 159.61 61.75 168.00 C 66.10 168.00 70.45 168.00 74.80 168.00 C 78.54 164.58 82.25 161.13 85.99 157.71 C 86.00 161.11 86.00 164.52 86.00 167.92 C 83.32 170.62 80.63 173.32 77.93 176.00 C 68.28 176.00 58.64 176.00 49.00 176.00 C 49.01 168.77 48.96 161.54 49.03 154.32 Z" />
<path fill="#343434" opacity="1.00" d=" M 102.35 154.96 C 106.11 150.55 110.84 146.94 114.98 142.85 C 115.03 153.90 114.99 164.95 115.00 176.00 C 110.75 176.00 106.50 176.00 102.25 175.99 C 102.35 168.98 102.08 161.96 102.35 154.96 Z" />
<path fill="#343434" opacity="1.00" d=" M 214.98 154.81 C 219.24 150.75 223.58 146.76 227.89 142.75 C 227.86 151.17 227.88 159.58 227.88 168.00 C 232.29 167.91 236.72 168.19 241.14 167.89 C 245.17 164.87 248.55 161.05 252.37 157.76 C 252.37 161.19 252.37 164.61 252.38 168.04 C 249.59 170.60 247.26 173.71 244.17 175.91 C 237.15 176.16 230.11 175.92 223.08 176.00 C 220.37 173.32 217.68 170.62 215.00 167.92 C 215.00 163.55 215.01 159.18 214.98 154.81 Z" />
<path fill="#343434" opacity="1.00" d=" M 6.35 155.00 C 10.18 150.55 14.95 146.92 19.12 142.76 C 19.12 146.46 19.12 150.17 19.13 153.87 C 22.37 153.87 25.62 153.87 28.87 153.88 C 28.87 156.54 28.87 159.21 28.87 161.87 C 25.62 161.87 22.38 161.87 19.13 161.88 C 19.12 166.58 19.13 171.29 19.12 176.00 C 14.83 176.00 10.54 176.00 6.25 175.99 C 6.35 168.99 6.08 161.99 6.35 155.00 Z" />
<path fill="#343434" opacity="1.00" d=" M 130.62 154.64 C 134.62 150.55 138.97 146.80 143.11 142.85 C 143.14 151.23 143.12 159.61 143.12 167.99 C 147.64 168.00 152.16 168.01 156.68 167.99 C 160.34 164.54 164.05 161.15 167.76 157.75 C 167.75 161.18 167.74 164.61 167.75 168.05 C 165.11 170.71 162.46 173.35 159.81 176.00 C 152.66 175.99 145.52 176.03 138.37 175.97 C 135.82 173.12 132.68 170.78 130.46 167.66 C 130.35 163.33 130.11 158.93 130.62 154.64 Z" />
<path fill="#343434" opacity="1.00" d=" M 172.51 154.73 C 176.80 150.75 181.08 146.74 185.37 142.76 C 185.38 153.84 185.38 164.92 185.37 176.00 C 181.08 176.00 176.78 176.01 172.49 175.98 C 172.52 168.90 172.48 161.81 172.51 154.73 Z" />
<path fill="#343434" opacity="1.00" d=" M 317.00 143.86 C 320.97 147.59 324.95 151.31 328.96 155.00 C 332.59 155.00 336.23 155.00 339.87 155.00 C 339.87 157.42 339.87 159.83 339.87 162.25 C 334.93 162.25 330.00 162.25 325.07 162.25 C 322.37 159.56 319.67 156.87 316.99 154.16 C 317.00 150.73 317.00 147.30 317.00 143.86 Z" />
<path fill="#343434" opacity="1.00" d=" M 359.73 154.75 C 363.94 150.71 368.24 146.75 372.50 142.76 C 372.50 153.84 372.51 164.92 372.50 176.00 C 368.25 176.00 364.00 176.00 359.75 176.00 C 359.73 168.91 359.78 161.83 359.73 154.75 Z" />
<path fill="#343434" opacity="1.00" d=" M 197.08 169.86 C 201.27 165.74 205.62 161.78 209.89 157.74 C 209.86 163.83 209.88 169.91 209.88 176.00 C 205.63 176.00 201.38 176.00 197.13 176.00 C 197.13 173.95 197.11 171.91 197.08 169.86 Z" />
<path fill="#343434" opacity="1.00" d=" M 257.28 157.72 C 260.98 161.12 264.68 164.51 268.33 167.95 C 279.19 168.06 290.04 167.97 300.89 168.00 C 304.58 164.57 308.29 161.17 312.00 157.75 C 312.00 161.18 312.00 164.62 312.00 168.06 C 309.36 170.71 306.71 173.35 304.06 176.00 C 291.14 176.00 278.21 176.02 265.29 175.99 C 262.60 173.28 259.89 170.60 257.23 167.87 C 257.25 164.49 257.25 161.11 257.28 157.72 Z" />
<path fill="#343434" opacity="1.00" d=" M 343.65 167.96 C 347.32 164.51 351.03 161.12 354.72 157.71 C 354.75 161.11 354.75 164.51 354.76 167.91 C 352.08 170.61 349.39 173.29 346.71 175.99 C 336.85 176.01 326.99 176.00 317.13 176.00 C 317.12 173.33 317.12 170.67 317.12 168.01 C 325.97 167.97 334.81 168.05 343.65 167.96 Z" />
<path fill="#343434" opacity="1.00" d=" M 384.31 169.56 C 388.60 165.69 392.77 161.68 397.00 157.74 C 397.00 163.83 397.00 169.91 397.00 176.00 C 392.74 176.00 388.49 176.00 384.23 175.99 C 384.24 173.85 384.27 171.70 384.31 169.56 Z" />
</g>
</svg>
