<?xml version="1.0" encoding="UTF-8" ?>
<!DOCTYPE svg PUBLIC "-//W3C//DTD SVG 1.1//EN" "http://www.w3.org/Graphics/SVG/1.1/DTD/svg11.dtd">
<svg width="1141pt" height="617pt" viewBox="0 0 1141 617" version="1.1" xmlns="http://www.w3.org/2000/svg">
<g id="#015bbbff">
<path fill="#015bbb" opacity="1.00" d=" M 241.88 22.41 C 285.26 12.76 330.83 13.05 374.08 23.30 C 426.92 35.69 475.92 63.38 514.25 101.75 C 536.50 124.10 555.06 150.03 569.33 178.15 C 550.59 216.01 539.88 257.85 538.68 300.10 C 536.98 348.59 547.76 397.38 569.33 440.83 C 553.13 472.74 531.43 501.91 504.99 526.06 C 477.15 551.68 444.34 571.90 408.88 585.11 C 367.62 600.59 322.83 606.40 278.96 602.38 C 235.11 598.42 192.21 584.40 154.53 561.64 C 97.74 527.63 53.05 473.91 30.17 411.77 C 5.02 344.46 5.86 267.89 32.48 201.15 C 48.85 159.83 74.78 122.34 107.61 92.38 C 145.25 57.89 192.00 33.41 241.88 22.41 M 231.47 154.29 C 226.70 154.93 221.71 153.86 217.08 155.34 C 209.53 155.47 202.16 157.38 194.62 157.63 C 191.71 159.70 188.64 161.57 186.00 163.98 C 179.62 170.75 174.98 178.87 169.95 186.63 C 166.71 193.46 162.40 199.83 160.28 207.15 C 159.78 208.38 159.29 209.62 158.79 210.86 C 156.31 216.70 154.75 222.85 152.80 228.86 C 150.78 235.23 149.03 241.69 147.15 248.10 C 146.45 250.81 145.63 253.55 143.65 255.63 C 141.48 257.95 140.01 261.64 136.48 262.00 C 136.52 260.96 136.59 258.90 136.63 257.87 C 138.62 252.94 137.80 246.14 133.24 242.75 C 130.40 240.68 126.77 239.20 123.22 240.05 C 116.22 241.57 109.45 244.00 102.81 246.68 C 99.46 249.03 95.38 252.42 96.40 257.03 C 97.54 262.71 101.70 267.67 107.08 269.84 C 110.39 271.83 114.33 271.98 118.08 271.63 C 122.46 273.63 124.46 278.20 127.35 281.73 C 127.28 286.03 127.51 290.35 126.80 294.61 C 126.21 298.63 126.96 302.83 125.66 306.75 C 125.35 310.18 125.47 313.63 125.18 317.07 C 123.96 325.64 124.77 334.43 124.81 343.08 C 125.87 348.65 124.91 354.39 125.72 360.00 C 126.44 361.26 126.54 362.73 126.82 364.13 C 127.39 366.19 127.77 368.63 130.38 368.77 C 129.42 373.80 129.94 378.93 130.10 384.01 C 129.15 388.65 130.80 393.31 129.83 397.97 C 129.70 409.65 129.65 421.35 130.04 433.02 C 130.75 438.03 129.46 443.01 129.73 448.03 C 129.90 451.70 130.07 455.38 129.81 459.06 C 130.12 460.49 130.37 461.94 130.52 463.41 C 131.79 464.85 133.13 466.22 134.48 467.59 C 145.30 468.43 156.20 467.87 167.05 467.93 C 171.18 468.22 173.84 464.39 174.78 460.83 C 175.17 459.96 175.34 459.05 175.30 458.10 C 175.22 448.51 175.31 438.92 175.25 429.33 C 262.75 429.41 350.25 429.41 437.75 429.33 C 437.77 439.54 437.61 449.75 437.83 459.95 C 438.57 460.98 438.53 462.26 438.65 463.48 C 440.51 465.71 442.61 468.39 445.90 467.96 C 456.79 467.81 467.72 468.50 478.57 467.54 C 479.85 466.12 481.17 464.75 482.51 463.40 C 482.57 459.59 483.31 455.79 482.91 451.99 C 483.32 449.73 483.26 447.43 482.95 445.17 C 482.05 437.78 484.09 430.38 482.92 423.01 C 482.96 416.33 483.64 409.63 482.96 402.97 C 483.44 391.67 482.96 380.33 482.92 369.04 C 484.88 367.37 486.93 365.58 486.74 362.72 C 487.92 358.92 487.48 354.88 487.64 350.97 C 487.65 336.64 487.94 322.29 487.34 307.97 C 487.26 306.72 487.04 305.50 486.67 304.31 C 486.26 300.97 486.80 297.50 485.67 294.29 C 485.36 290.17 484.72 285.92 485.70 281.85 C 487.92 278.33 490.57 274.95 493.88 272.40 C 497.33 271.70 500.89 271.57 504.23 270.31 C 509.51 268.45 513.88 264.23 516.03 259.07 C 517.31 256.28 516.52 252.97 514.53 250.73 C 511.61 246.74 506.58 245.55 502.25 243.75 C 497.29 242.12 492.41 239.61 487.04 240.19 C 482.41 239.92 477.70 242.73 476.03 247.07 C 474.85 251.97 476.08 257.08 475.83 262.06 L 473.93 261.61 C 470.96 258.95 468.79 255.38 466.92 251.88 C 464.03 243.32 461.94 234.52 459.10 225.95 C 457.61 221.69 456.61 217.26 454.74 213.13 C 452.89 207.60 450.77 202.18 448.23 196.93 C 446.41 192.86 444.71 188.70 441.97 185.13 C 436.00 175.17 429.24 165.41 419.97 158.24 C 415.74 157.12 411.24 157.14 406.93 156.24 C 400.12 154.86 393.03 156.21 386.25 154.66 C 381.51 154.34 376.73 154.63 372.04 153.73 C 333.75 151.56 295.33 151.61 256.99 152.76 C 248.52 153.86 239.91 152.87 231.47 154.29 Z" />
<path fill="#015bbb" opacity="1.00" d=" M 990.41 61.43 C 990.45 61.46 990.55 61.52 990.60 61.55 C 990.55 61.52 990.45 61.46 990.41 61.43 Z" />
<path fill="#015bbb" opacity="1.00" d=" M 223.98 164.71 C 230.95 160.67 239.37 163.06 246.97 161.95 C 253.97 162.86 260.97 161.37 267.99 161.77 C 299.00 161.77 330.02 161.66 361.03 161.85 C 369.60 163.01 378.48 161.01 386.86 163.63 C 389.41 164.25 390.92 166.56 392.52 168.45 C 395.86 172.80 399.59 176.82 402.84 181.25 C 410.03 190.58 421.46 196.33 426.73 207.16 C 429.15 212.15 430.30 217.64 432.20 222.83 C 434.06 227.82 435.32 233.00 437.20 237.98 C 437.73 240.00 438.32 242.00 438.93 244.00 C 440.24 248.76 441.78 253.49 442.63 258.36 C 352.15 258.82 261.66 258.74 171.17 258.42 C 171.08 253.47 172.94 248.80 174.27 244.11 C 174.38 243.56 174.61 242.45 174.72 241.90 C 178.81 230.73 181.80 219.14 186.15 208.06 C 188.21 202.90 192.00 198.71 196.23 195.22 C 201.87 189.90 207.64 184.66 212.53 178.62 C 216.68 174.26 219.50 168.76 223.98 164.71 Z" />
<path fill="#015bbb" opacity="1.00" d=" M 155.82 274.53 C 157.57 274.46 159.32 274.45 161.07 274.56 C 163.27 276.10 166.14 276.22 168.62 277.18 C 172.69 278.10 176.30 280.20 180.09 281.85 C 188.86 285.47 196.87 290.65 205.37 294.84 C 212.35 299.04 220.80 301.40 225.88 308.21 C 229.94 312.43 229.75 319.75 226.22 324.24 C 220.44 326.71 214.39 329.04 207.98 328.48 C 195.56 327.96 183.16 326.49 170.93 324.28 C 164.35 322.46 157.11 322.14 151.34 318.09 C 148.45 315.94 145.28 313.10 145.27 309.20 C 144.43 300.30 143.70 290.86 147.24 282.42 C 148.74 278.60 152.21 276.15 155.82 274.53 Z" />
<path fill="#015bbb" opacity="1.00" d=" M 433.03 281.24 C 441.10 278.36 449.36 273.93 458.18 275.67 C 463.20 278.51 466.85 283.39 468.26 288.98 C 469.94 293.87 469.39 299.12 469.24 304.20 C 468.17 308.68 465.85 312.59 462.89 316.06 C 456.85 319.30 450.70 322.57 443.88 323.79 C 442.26 324.32 440.58 324.59 438.92 324.88 C 431.76 326.61 424.36 326.42 417.05 326.75 C 409.74 327.41 402.39 327.27 395.05 327.35 C 389.31 327.51 384.78 323.02 382.50 318.14 C 382.42 315.97 382.85 313.86 383.75 311.89 C 389.16 306.42 395.79 302.43 402.02 297.99 C 412.05 291.87 422.04 285.52 433.03 281.24 Z" />
</g>
<g id="#fed501ff">
<path fill="#fed501" opacity="1.00" d=" M 745.13 28.65 C 784.95 16.30 827.39 12.54 868.76 17.67 C 911.90 22.93 953.82 37.97 990.41 61.43 C 990.45 61.46 990.55 61.52 990.60 61.55 C 1037.27 91.22 1075.23 134.40 1098.69 184.48 C 1117.22 223.54 1126.54 266.77 1126.61 309.95 C 1126.43 356.68 1115.26 403.41 1093.59 444.85 C 1075.25 480.12 1049.75 511.68 1018.97 536.85 C 981.04 568.08 935.17 589.57 886.85 598.53 C 848.35 605.73 808.45 605.18 770.16 596.91 C 697.81 581.54 632.19 537.40 590.41 476.40 C 582.55 465.06 575.52 453.15 569.33 440.83 C 547.76 397.38 536.98 348.59 538.68 300.10 C 539.88 257.85 550.59 216.01 569.33 178.15 C 587.34 142.30 612.63 110.07 643.41 84.32 C 673.18 59.26 707.97 40.19 745.13 28.65 M 838.07 155.65 C 820.29 160.09 803.82 169.03 789.69 180.61 C 776.01 192.65 764.39 207.34 757.11 224.13 C 748.44 243.04 745.20 264.21 746.63 284.91 C 748.55 304.02 754.49 322.90 764.83 339.16 C 740.28 363.85 715.56 388.37 691.00 413.05 C 686.20 417.93 680.74 422.61 678.18 429.15 C 673.93 439.27 676.44 451.95 684.57 459.40 C 689.45 464.40 696.33 467.01 703.15 467.87 C 711.07 467.64 718.86 464.10 724.36 458.37 C 751.01 431.94 777.56 405.42 804.06 378.85 C 825.62 391.49 850.83 399.01 875.96 396.79 C 908.09 395.59 939.00 380.24 960.47 356.49 C 978.29 336.54 989.58 310.70 991.40 283.96 C 991.44 280.19 992.89 276.54 992.44 272.75 C 990.90 263.82 990.98 254.61 988.51 245.83 C 981.65 217.15 964.19 190.90 939.87 174.11 C 910.88 153.29 872.52 146.45 838.07 155.65 Z" />
<path fill="#fed501" opacity="1.00" d=" M 864.50 186.82 C 891.24 185.36 918.48 196.72 935.72 217.33 C 956.03 240.49 962.18 274.77 951.75 303.68 C 944.82 324.06 929.70 341.37 910.82 351.59 C 885.52 365.36 853.54 365.51 828.11 351.97 C 803.39 339.08 785.51 313.74 782.31 285.98 C 778.19 257.66 789.22 227.63 810.85 208.84 C 825.44 195.51 844.85 187.97 864.50 186.82 M 876.25 208.28 C 870.15 209.70 865.44 215.72 865.62 222.00 C 865.61 228.32 870.37 234.35 876.60 235.62 C 891.31 238.86 903.39 250.81 907.61 265.16 C 908.29 267.69 909.00 270.31 910.71 272.38 C 915.38 278.95 926.27 279.75 931.69 273.69 C 936.58 269.14 936.48 261.67 934.34 255.80 C 928.62 239.02 916.21 225.07 901.52 215.45 C 894.00 210.94 885.25 206.43 876.25 208.28 Z" />
</g>
<g id="#ffffffff">
<path fill="#ffffff" opacity="1.00" d=" M 838.07 155.65 C 872.52 146.45 910.88 153.29 939.87 174.11 C 964.19 190.90 981.65 217.15 988.51 245.83 C 990.98 254.61 990.90 263.82 992.44 272.75 C 992.89 276.54 991.44 280.19 991.40 283.96 C 989.58 310.70 978.29 336.54 960.47 356.49 C 939.00 380.24 908.09 395.59 875.96 396.79 C 850.83 399.01 825.62 391.49 804.06 378.85 C 777.56 405.42 751.01 431.94 724.36 458.37 C 718.86 464.10 711.07 467.64 703.15 467.87 C 696.33 467.01 689.45 464.40 684.57 459.40 C 676.44 451.95 673.93 439.27 678.18 429.15 C 680.74 422.61 686.20 417.93 691.00 413.05 C 715.56 388.37 740.28 363.85 764.83 339.16 C 754.49 322.90 748.55 304.02 746.63 284.91 C 745.20 264.21 748.44 243.04 757.11 224.13 C 764.39 207.34 776.01 192.65 789.69 180.61 C 803.82 169.03 820.29 160.09 838.07 155.65 M 864.50 186.82 C 844.85 187.97 825.44 195.51 810.85 208.84 C 789.22 227.63 778.19 257.66 782.31 285.98 C 785.51 313.74 803.39 339.08 828.11 351.97 C 853.54 365.51 885.52 365.36 910.82 351.59 C 929.70 341.37 944.82 324.06 951.75 303.68 C 962.18 274.77 956.03 240.49 935.72 217.33 C 918.48 196.72 891.24 185.36 864.50 186.82 Z" />
<path fill="#ffffff" opacity="1.00" d=" M 231.47 154.29 C 239.91 152.87 248.52 153.86 256.99 152.76 C 295.33 151.61 333.75 151.56 372.04 153.73 C 376.73 154.63 381.51 154.34 386.25 154.66 C 393.03 156.21 400.12 154.86 406.93 156.24 C 411.24 157.14 415.74 157.12 419.97 158.24 C 429.24 165.41 436.00 175.17 441.97 185.13 C 444.71 188.70 446.41 192.86 448.23 196.93 C 450.77 202.18 452.89 207.60 454.74 213.13 C 456.61 217.26 457.61 221.69 459.10 225.95 C 461.94 234.52 464.03 243.32 466.92 251.88 C 468.79 255.38 470.96 258.95 473.93 261.61 L 475.83 262.06 C 476.08 257.08 474.85 251.97 476.03 247.07 C 477.70 242.73 482.41 239.92 487.04 240.19 C 492.41 239.61 497.29 242.12 502.25 243.75 C 506.58 245.55 511.61 246.74 514.53 250.73 C 516.52 252.97 517.31 256.28 516.03 259.07 C 513.88 264.23 509.51 268.45 504.23 270.31 C 500.89 271.57 497.33 271.70 493.88 272.40 C 490.57 274.95 487.92 278.33 485.70 281.85 C 484.72 285.92 485.36 290.17 485.67 294.29 C 486.80 297.50 486.26 300.97 486.67 304.31 C 487.04 305.50 487.26 306.72 487.34 307.97 C 487.94 322.29 487.65 336.64 487.64 350.97 C 487.48 354.88 487.92 358.92 486.74 362.72 C 486.93 365.58 484.88 367.37 482.92 369.04 C 482.96 380.33 483.44 391.67 482.96 402.97 C 483.64 409.63 482.96 416.33 482.92 423.01 C 484.09 430.38 482.05 437.78 482.95 445.17 C 483.26 447.43 483.32 449.73 482.91 451.99 C 483.31 455.79 482.57 459.59 482.51 463.40 C 481.17 464.75 479.85 466.12 478.57 467.54 C 467.72 468.50 456.79 467.81 445.90 467.96 C 442.61 468.39 440.51 465.71 438.65 463.48 C 438.53 462.26 438.57 460.98 437.83 459.95 C 437.61 449.75 437.77 439.54 437.75 429.33 C 350.25 429.41 262.75 429.41 175.25 429.33 C 175.31 438.92 175.22 448.51 175.30 458.10 C 175.34 459.05 175.17 459.96 174.78 460.83 C 173.84 464.39 171.18 468.22 167.05 467.93 C 156.20 467.87 145.30 468.43 134.48 467.59 C 133.13 466.22 131.79 464.85 130.52 463.41 C 130.37 461.94 130.12 460.49 129.81 459.06 C 130.07 455.38 129.90 451.70 129.73 448.03 C 129.46 443.01 130.75 438.03 130.04 433.02 C 129.65 421.35 129.70 409.65 129.83 397.97 C 130.80 393.31 129.15 388.65 130.10 384.01 C 129.94 378.93 129.42 373.80 130.38 368.77 C 127.77 368.63 127.39 366.19 126.82 364.13 C 126.54 362.73 126.44 361.26 125.72 360.00 C 124.91 354.39 125.87 348.65 124.81 343.08 C 124.77 334.43 123.96 325.64 125.18 317.07 C 125.47 313.63 125.35 310.18 125.66 306.75 C 126.96 302.83 126.21 298.63 126.80 294.61 C 127.51 290.35 127.28 286.03 127.35 281.73 C 124.46 278.20 122.46 273.63 118.08 271.63 C 114.33 271.98 110.39 271.83 107.08 269.84 C 101.70 267.67 97.54 262.71 96.40 257.03 C 95.38 252.42 99.46 249.03 102.81 246.68 C 109.45 244.00 116.22 241.57 123.22 240.05 C 126.77 239.20 130.40 240.68 133.24 242.75 C 137.80 246.14 138.62 252.94 136.63 257.87 C 136.59 258.90 136.52 260.96 136.48 262.00 C 140.01 261.64 141.48 257.95 143.65 255.63 C 145.63 253.55 146.45 250.81 147.15 248.10 C 149.03 241.69 150.78 235.23 152.80 228.86 C 154.75 222.85 156.31 216.70 158.79 210.86 C 159.29 209.62 159.78 208.38 160.28 207.15 C 162.40 199.83 166.71 193.46 169.95 186.63 C 174.98 178.87 179.62 170.75 186.00 163.98 C 188.64 161.57 191.71 159.70 194.62 157.63 C 202.16 157.38 209.53 155.47 217.08 155.34 C 221.71 153.86 226.70 154.93 231.47 154.29 M 223.98 164.71 C 219.50 168.76 216.68 174.26 212.53 178.62 C 207.64 184.66 201.87 189.90 196.23 195.22 C 192.00 198.71 188.21 202.90 186.15 208.06 C 181.80 219.14 178.81 230.73 174.72 241.90 C 174.61 242.45 174.38 243.56 174.27 244.11 C 172.94 248.80 171.08 253.47 171.17 258.42 C 261.66 258.74 352.15 258.82 442.63 258.36 C 441.78 253.49 440.24 248.76 438.93 244.00 C 438.32 242.00 437.73 240.00 437.20 237.98 C 435.32 233.00 434.06 227.82 432.20 222.83 C 430.30 217.64 429.15 212.15 426.73 207.16 C 421.46 196.33 410.03 190.58 402.84 181.25 C 399.59 176.82 395.86 172.80 392.52 168.45 C 390.92 166.56 389.41 164.25 386.86 163.63 C 378.48 161.01 369.60 163.01 361.03 161.85 C 330.02 161.66 299.00 161.77 267.99 161.77 C 260.97 161.37 253.97 162.86 246.97 161.95 C 239.37 163.06 230.95 160.67 223.98 164.71 M 155.82 274.53 C 152.21 276.15 148.74 278.60 147.24 282.42 C 143.70 290.86 144.43 300.30 145.27 309.20 C 145.28 313.10 148.45 315.94 151.34 318.09 C 157.11 322.14 164.35 322.46 170.93 324.28 C 183.16 326.49 195.56 327.96 207.98 328.48 C 214.39 329.04 220.44 326.71 226.22 324.24 C 229.75 319.75 229.94 312.43 225.88 308.21 C 220.80 301.40 212.35 299.04 205.37 294.84 C 196.87 290.65 188.86 285.47 180.09 281.85 C 176.30 280.20 172.69 278.10 168.62 277.18 C 166.14 276.22 163.27 276.10 161.07 274.56 C 159.32 274.45 157.57 274.46 155.82 274.53 M 433.03 281.24 C 422.04 285.52 412.05 291.87 402.02 297.99 C 395.79 302.43 389.16 306.42 383.75 311.89 C 382.85 313.86 382.42 315.97 382.50 318.14 C 384.78 323.02 389.31 327.51 395.05 327.35 C 402.39 327.27 409.74 327.41 417.05 326.75 C 424.36 326.42 431.76 326.61 438.92 324.88 C 440.58 324.59 442.26 324.32 443.88 323.79 C 450.70 322.57 456.85 319.30 462.89 316.06 C 465.85 312.59 468.17 308.68 469.24 304.20 C 469.39 299.12 469.94 293.87 468.26 288.98 C 466.85 283.39 463.20 278.51 458.18 275.67 C 449.36 273.93 441.10 278.36 433.03 281.24 Z" />
<path fill="#ffffff" opacity="1.00" d=" M 876.25 208.28 C 885.25 206.43 894.00 210.94 901.52 215.45 C 916.21 225.07 928.62 239.02 934.34 255.80 C 936.48 261.67 936.58 269.14 931.69 273.69 C 926.27 279.75 915.38 278.95 910.71 272.38 C 909.00 270.31 908.29 267.69 907.61 265.16 C 903.39 250.81 891.31 238.86 876.60 235.62 C 870.37 234.35 865.61 228.32 865.62 222.00 C 865.44 215.72 870.15 209.70 876.25 208.28 Z" />
</g>
</svg>
